<?xml version="1.0" encoding="UTF-8"?>
<svg xmlns="http://www.w3.org/2000/svg" style="enable-background:new 0 0 222 171.8" xml:space="preserve" viewBox="0 0 222 171.8">
  <style>.st1{display:inline;stroke:#fff;stroke-miterlimit:10}</style>
  <g id="Layer_1">
    <path d="M43.8 71.1V33.7l145.8 138.1h4.5V48.5c0-27.8 9.3-36.9 27.8-43.9V0H161v4.6c18.6 7.1 27.8 16.2 27.8 43.9v81.4L60.1 6.1C54.2.7 52.6 0 48.8 0H.3v4.6c10.6 1.1 17 4.1 32.4 19.1l5.9 5.7v41.7h5.2zM38.6 117.2v4.9c0 27.8-9.3 36.9-27.8 43.9v4.6h60.9V166c-18.6-7.1-27.8-16.2-27.8-43.9v-4.9h-5.3z"></path>
    <g>
      <path d="m60.4 106.7 2.5-5.5c.5-1.1.6-1.3 1.2-1.4v-.4h-2.6v.4c.9.2.9.6.5 1.5l-1 2.4-1.2-2.8c-.3-.6-.2-1 .7-1.1v-.4h-3.4v.4c.4.1.6.3.9 1l2.2 4.7-.4.8c-.2.5-.4.8-.6 1-.2-.5-.5-.8-.9-.8-.5 0-.9.3-.9.9s.5 1.1 1.1 1.1c.8 0 1.3-.4 1.9-1.8m-3.4-1.6-.2-.4c-.4.2-.7.2-.9.2-.6 0-.8-.3-.8-.7v-3.9h1.7v-.7H55v-1.2h-.2l-2.4 1.5v.4h1v4.3c0 .9.5 1.3 1.4 1.3.8-.1 1.5-.4 2.2-.8m-5 .2c-.8-.1-.9-.3-.9-1v-5h-.6l-1.9 1.3v.3h.9v3.5c0 .7-.1.9-.9 1v.4H52v-.5zm-1.9-7c.5 0 1-.4 1-1 0-.5-.4-.9-.9-.9-.6 0-1 .4-1 1 0 .5.4.9.9.9m-2.3 5.4c0-1.2-1-1.6-1.9-1.9-.9-.3-1.6-.5-1.6-1.2 0-.4.3-.7.8-.7.7 0 1.3.4 2 1.2l.3-.2-.5-1.6h-.2l-.2.2c-.4-.2-.8-.2-1.2-.2-1.4 0-2.3.8-2.3 2s1 1.6 1.9 1.9c.9.3 1.6.5 1.6 1.2 0 .4-.3.8-1 .8-.9 0-1.5-.6-2.3-1.6l-.4.1.5 2h.2l.4-.3c.4.2.9.3 1.5.3 1.3.1 2.4-.7 2.4-2m-6.8 1.6c-.9-.1-1-.3-1-1.1v-2.7c.3-.5.5-.8.8-1 0 .5.4.8.8.8s.9-.4.9-1-.3-.9-.9-.9c-.6 0-1.1.5-1.6 1.3v-1.3h-.6l-1.9 1.2v.3h.9v3.5c0 .7-.1.9-.9 1v.4H41v-.5zm-8.2-3.6c0-1.1.4-1.7 1.3-1.7.6 0 1 .4 1.1 1.3l-2.4.8v-.4m4.1 2.8-.4-.3c-.4.4-.9.7-1.5.7-1.2 0-1.9-.9-2.1-2.1l3.9-1.3c-.1-1.4-1.1-2.1-2.4-2.1-1.8 0-3.2 1.5-3.2 3.3 0 1.8 1.2 3.2 3.2 3.2 1.3-.1 2.1-.7 2.5-1.4m-6.8-3.2c.5-1.1.6-1.3 1.2-1.4v-.4h-2.6v.4c.9.2.9.6.5 1.5l-1 2.4L27 101c-.3-.6-.2-1 .7-1.1v-.4h-3.4v.4c.4.1.6.3.9 1l2.2 4.9h.7l2-4.5zm-6 4c-.8-.1-.9-.3-.9-1v-5h-.6l-1.9 1.3v.3h.9v3.5c0 .7-.1.9-.9 1v.4h3.5v-.5zm-1.9-7c.5 0 1-.4 1-1 0-.5-.4-.9-.9-.9-.6 0-1 .4-1 1 0 .5.4.9.9.9m-6.6 7c-.7-.1-.9-.3-.9-1v-3c.7-.6 1.2-.9 1.7-.9.6 0 .8.3.8.9v3c0 .7-.1.9-.9 1v.4h3.4v-.4c-.7-.1-.9-.3-.9-1v-3.1c0-1-.4-1.8-1.8-1.8-.8 0-1.6.5-2.4 1.2v-1.3H14l-1.9 1.2v.3h.9v3.5c0 .7-.1.9-.9 1v.4h3.4v-.4zM1.4 97.6v3.9c0 2.5 1.3 4.3 4.7 4.3s4.7-1.8 4.7-4.3v-3.2c0-1.5.4-1.9 1.2-2.1v-.4H8.7v.4c.7.2 1.2.6 1.2 2.1v3.2c0 2.2-1.2 3.2-3.4 3.2s-3.4-1-3.4-3.2v-4c0-1 .3-1.2 1.1-1.3v-.4h-4v.4c.9.2 1.2.4 1.2 1.4M76.9 91.1c-.7-.1-.9-.3-.9-1v-3c.7-.6 1.2-.9 1.7-.9.6 0 .8.3.8.9v3c0 .7-.1.9-.9 1v.4H81v-.4c-.7-.1-.9-.3-.9-1V87c0-1-.4-1.8-1.8-1.8-.8 0-1.6.5-2.4 1.2v-1.3h-.6l-1.9 1.2v.3h.9v3.5c0 .7-.1.9-.9 1v.4h3.4v-.4zm-5.2 0c-.9-.1-1-.3-1-1.1v-2.7c.3-.5.5-.8.8-1 0 .5.4.8.8.8s.9-.4.9-1-.3-.9-.9-.9c-.6 0-1.1.5-1.6 1.3v-1.3h-.6l-1.9 1.2v.3h.9v3.5c0 .7-.1.9-.9 1v.4h3.5v-.5zm-8.2-3.6c0-1.1.4-1.7 1.3-1.7.6 0 1 .4 1.1 1.3l-2.4.9v-.5m4.1 2.8-.4-.3c-.4.4-.9.7-1.5.7-1.2 0-1.9-.9-2.1-2.1l3.9-1.3c-.1-1.4-1.1-2.1-2.4-2.1-1.8 0-3.2 1.5-3.2 3.3 0 1.8 1.2 3.2 3.2 3.2 1.3-.1 2-.6 2.5-1.4m-6.1.6-.2-.4c-.4.2-.7.2-.9.2-.6 0-.8-.3-.8-.7v-4h1.7v-.7h-1.7v-1.2h-.2L57 85.6v.4h1v4.3c0 .9.5 1.3 1.4 1.3.8 0 1.5-.2 2.1-.7m-4.9-1.3c0-1.2-1-1.6-1.9-1.9-.9-.3-1.6-.5-1.6-1.2 0-.4.3-.7.8-.7.7 0 1.3.4 2 1.2l.3-.2-.5-1.6h-.2l-.2.2c-.4-.2-.8-.2-1.2-.2-1.4 0-2.3.8-2.3 2s1 1.6 1.9 1.9c.9.3 1.6.5 1.6 1.2 0 .4-.3.8-1 .8-.9 0-1.5-.6-2.3-1.6l-.4.1.5 2h.2l.4-.3c.4.2.9.3 1.5.3 1.3 0 2.4-.8 2.4-2m-10.1.2c0-.7.3-1 1.8-1.4v1.9c-.4.3-.7.4-1 .4-.5 0-.8-.2-.8-.9m2.9 1.8c.6 0 1.2-.3 1.6-.5l-.1-.4c-.6.1-.9 0-.9-.4v-3.5c0-1-.5-1.6-1.9-1.6-1.7 0-2.9.9-2.9 1.7 0 .4.3.7.7.7.5 0 .8-.4.9-.7.1-.4-.1-.7-.2-.9.3-.2.7-.2 1-.2.6 0 .8.2.8.7v1.3c-2.3.6-3.4 1.1-3.4 2.3 0 1 .6 1.5 1.6 1.5.6 0 1.3-.3 1.9-.7 0 .4.3.7.9.7m-9.3-4.1c0-1.1.4-1.7 1.3-1.7.6 0 1 .4 1.1 1.3l-2.4.9v-.5m4.1 2.8-.3-.3c-.4.4-.9.7-1.5.7-1.2 0-1.9-.9-2.1-2.1l3.9-1.3c-.1-1.4-1.1-2.1-2.4-2.1-1.8 0-3.2 1.5-3.2 3.3 0 1.8 1.2 3.2 3.2 3.2 1.2-.1 2-.6 2.4-1.4m-10.4.8c-.7-.1-.9-.3-.9-1v-3c.6-.6 1.1-.9 1.7-.9.6 0 .8.3.8.9v3c0 .7-.1.9-.9 1v.4h3.4v-.4c-.7-.1-.9-.3-.9-1V87c0-1-.4-1.8-1.8-1.8-.8 0-1.6.5-2.4 1.1v-5.2h-.5l-2.1 1.4v.3h1v7.3c0 .7-.1.9-.9 1v.4h3.4v-.4zm-3.7-.2-.2-.4c-.4.2-.7.2-.9.2-.6 0-.8-.3-.8-.7v-4h1.7v-.7h-1.7v-1.2H28l-2.4 1.5v.4h1v4.3c0 .9.5 1.3 1.4 1.3.7 0 1.4-.2 2.1-.7m-6.4.2c-.9-.1-1-.3-1-1.1v-2.7c.3-.5.5-.8.8-1 0 .5.4.8.8.8s.9-.4.9-1-.3-.9-.9-.9c-.6 0-1.1.5-1.6 1.3v-1.3H22l-1.9 1.2v.3h.9v3.5c0 .7-.1.9-.9 1v.4h3.5v-.5zm-9.5-3.4c0-1.2.5-1.9 1.6-1.9 1.4 0 1.8 1.7 1.8 3.3 0 1.2-.5 1.9-1.6 1.9-1.4 0-1.8-1.7-1.8-3.3m5 .6c0-1.7-1.2-3.2-3.3-3.2-2.1 0-3.4 1.5-3.4 3.3 0 1.7 1.2 3.2 3.3 3.2 2.2 0 3.4-1.5 3.4-3.3m-8.5-4.1c0-1.5.4-1.9 1.2-2.1v-.4H8.7v.4c.7.2 1.2.6 1.2 2.1v4.6l-6.7-6.7c-.4-.4-.5-.4-.7-.4H0v.4c.5.1.9.3 1.5.8.2.2.4.4.4.8V89c0 1.5-.4 1.9-1.2 2.1v.4h3.2v-.4c-.7-.2-1.2-.6-1.2-2.1v-5l7.5 7.5h.5v-7.3z"></path>
    </g>
  </g>
</svg>
